<svg width="141" height="40" viewBox="0 0 141 40" fill="none" xmlns="http://www.w3.org/2000/svg">
<g clip-path="url(#clip0)">
<path d="M118.86 37.1495V25.653H123.42V21.6625H109.359V25.653H113.919V37.1495H118.86ZM96.8171 32.6839C96.3421 32.3989 95.867 31.9238 95.582 31.3537C95.2969 30.7837 95.1069 30.1186 95.1069 29.4535C95.1069 28.6934 95.2969 28.0283 95.582 27.5533C95.867 26.9832 96.2471 26.6031 96.8171 26.2231C97.3872 25.9381 97.9573 25.748 98.6223 25.748C99.2874 25.748 99.8575 25.9381 100.428 26.2231C100.903 26.5081 101.378 26.9832 101.663 27.5533C101.948 28.1233 102.138 28.7884 102.138 29.5485C102.138 30.3086 101.948 30.8787 101.663 31.4487C101.378 32.0188 100.998 32.4939 100.428 32.7789C99.9525 33.0639 99.2874 33.254 98.6223 33.254C97.9573 33.159 97.2922 32.9689 96.8171 32.6839ZM102.043 36.8644C103.088 36.4844 104.038 35.9143 104.798 35.1542C105.558 34.3941 106.128 33.539 106.603 32.5889C107.078 31.6388 107.268 30.4986 107.268 29.3585C107.268 28.2183 107.078 27.0782 106.603 26.1281C106.223 25.178 105.558 24.3229 104.798 23.5628C104.038 22.8027 103.088 22.3276 102.043 21.8525C100.998 21.3775 99.8575 21.2825 98.6223 21.2825C97.3872 21.2825 96.247 21.4725 95.2019 21.8525C94.1568 22.2326 93.2067 22.8027 92.4466 23.5628C91.6865 24.3229 91.1164 25.178 90.6413 26.1281C90.2613 27.0782 89.9763 28.2183 89.9763 29.3585C89.9763 30.4986 90.1663 31.6388 90.6413 32.5889C91.0214 33.539 91.6865 34.3941 92.4466 35.1542C93.2067 35.9143 94.1568 36.3894 95.2019 36.8644C96.247 37.2445 97.3872 37.4345 98.6223 37.4345C99.8575 37.4345 100.998 37.2445 102.043 36.8644ZM87.886 37.1495V33.159H81.7102V21.6625H76.6746V37.1495H87.886ZM72.8741 21.6625H67.8385V37.1495H72.8741V21.6625ZM59.5725 25.653C59.9525 25.9381 60.1425 26.4131 60.1425 27.0782C60.1425 28.4084 59.3824 29.0734 57.8623 29.0734H57.1972V25.178H57.8623C58.6223 25.178 59.1924 25.368 59.5725 25.653ZM57.1972 37.1495V32.5889H58.5273C60.5226 32.5889 62.1378 32.1138 63.1829 31.1637C64.3231 30.2136 64.7981 28.8834 64.7981 27.0782C64.7981 25.368 64.228 24.0378 63.0879 23.0877C61.9478 22.1376 60.4276 21.6625 58.4323 21.6625H52.3516V37.1495H57.1972Z" fill="#00414B"/>
<path d="M136.342 18.432V6.93557H140.903V2.94507H126.841V6.93557H131.401V18.432H136.342ZM114.109 18.432V12.2562L118.67 18.432H125.036L118.385 10.356L124.466 2.94507H118.67L114.204 8.93082V2.94507H109.264V18.432H114.109ZM99.7625 6.93557C100.143 7.2206 100.333 7.69566 100.333 8.36074C100.333 9.69091 99.5725 10.356 98.0523 10.356H97.2922V6.46051H98.0523C98.8124 6.46051 99.3824 6.65053 99.7625 6.93557ZM97.2922 18.432V13.8714H98.9074L101.188 18.432H106.508L102.898 12.5413C103.468 12.0662 104.038 11.4961 104.418 10.736C104.798 10.071 104.988 9.31086 104.988 8.45576C104.988 6.74554 104.418 5.32036 103.278 4.37025C102.138 3.42013 100.618 2.94507 98.6223 2.94507H92.5416V18.432H97.2922ZM81.0452 7.03058L82.4703 11.5911H79.715L81.0452 7.03058ZM77.5297 18.432L78.4798 15.2016H83.5155L84.4656 18.432H89.6912L83.7055 2.94507H78.5748L72.5891 18.432H77.5297ZM57.0071 18.432V10.071L59.2874 15.2016H62.9929L65.2732 10.071V18.432H69.7387V2.94507H64.6081L61.0927 10.8311L57.5772 2.94507H52.3516V18.432H57.0071Z" fill="#00414B"/>
<path d="M32.78 4.55921C26.4142 -0.761456 17.2931 -1.52155 9.97717 2.65897C9.12206 3.22904 8.26696 3.79911 7.41185 4.4642C0.000922121 10.4499 -2.08934 20.6162 2.28121 29.3573C2.47123 29.7374 2.75627 30.1174 3.0413 30.2124C3.13631 30.2124 3.23133 30.2124 3.32634 30.1174C3.8014 29.8324 3.42135 28.8822 3.42135 28.7872C3.42135 28.5972 3.32634 28.4072 3.23133 28.2172C1.52111 22.8965 2.1862 18.621 3.23133 15.2005C5.32159 9.40481 8.93204 5.60434 14.1577 3.79911C22.9938 0.663721 32.78 5.22429 36.0104 13.9654C39.4309 23.1815 34.9653 32.7777 25.6541 36.2932C22.4237 37.5283 19.0033 37.6233 15.5829 36.7682L16.343 34.583C23.2788 36.1982 30.4047 32.8727 33.3501 26.5069C36.2955 20.1412 34.3002 12.4452 28.6945 8.45469C22.8038 4.27417 14.8228 4.84424 9.78715 9.87987C4.75152 14.8205 4.46648 21.7564 6.65175 26.1269C7.0318 26.4119 7.31684 26.602 7.60187 26.4119C7.98192 26.3169 7.88691 25.6518 7.7919 25.6518C7.7919 25.3668 7.69689 25.0818 7.69689 24.7967C7.69689 24.5117 7.60187 24.3217 7.60187 24.0366C7.60187 23.9416 7.60187 23.7516 7.60187 23.6566C7.12681 18.4309 9.97717 11.6851 15.3928 9.40481C20.9035 7.02952 27.7444 9.40481 30.5948 14.5355C33.7301 20.2362 31.8299 27.267 26.3192 30.6875C23.4689 32.3977 20.5235 32.8727 17.3881 32.1127L18.2432 29.7374C23.2788 30.5925 26.7943 27.7421 28.3145 24.9868C30.2147 21.3763 29.6446 16.9108 26.7943 14.0604C23.9439 11.115 19.2883 10.4499 15.8679 12.2552C12.2575 14.2504 10.1672 18.2409 11.0223 21.8514C11.1173 22.1364 11.3073 22.2314 11.4974 22.2314C11.8774 22.2314 12.1624 21.5663 12.1624 21.3763C12.2575 21.0913 12.2575 20.9012 12.3525 20.7112C13.5876 17.3858 15.2978 15.3906 17.6731 14.4404C20.2385 13.3953 23.4689 14.1554 25.0841 16.3407C26.9843 18.811 27.0793 22.0414 25.2741 24.5117C23.8489 26.4119 21.3786 27.4571 19.1933 27.077L21.4736 20.9963C21.5686 20.8062 21.3786 20.6162 21.2836 20.6162L19.2883 19.8561C19.1933 19.8561 19.0983 19.8561 19.0983 19.8561C19.0033 19.9511 18.9083 20.0461 18.9083 20.0461L12.2575 38.2884C12.2575 38.2884 12.1624 38.4784 12.2575 38.6685C12.2575 38.7635 12.3525 38.8585 12.5425 38.8585C15.0128 39.8086 17.5781 40.1887 20.0484 40.1887C27.2693 40.1887 34.1102 36.3882 37.6256 29.7374C42.1862 21.0913 40.191 10.83 32.78 4.55921Z" fill="#00CBC4"/>
</g>
<defs>
<clipPath id="clip0">
<rect width="140.903" height="40" fill="white"/>
</clipPath>
</defs>
</svg>
